<svg width="35" height="35" viewBox="0 0 35 35" xmlns="http://www.w3.org/2000/svg" xmlns:xlink="http://www.w3.org/1999/xlink" overflow="hidden"><path d="M21.5 8.955 21.5 13.728 30.25 7.364 21.5 1 21.5 5.773C11.831 5.773 4 11.468 4 18.5 4.04491 21.0146 5.00973 23.4256 6.712 25.277L9.906 22.954C8.92513 21.6752 8.38766 20.1116 8.375 18.5 8.375 13.234 14.259 8.955 21.5 8.955ZM36.288 11.723 33.094 14.046C34.0631 15.3311 34.5992 16.8907 34.625 18.5 34.625 23.766 28.741 28.045 21.5 28.045L21.5 23.273 12.75 29.637 21.5 36 21.5 31.227C31.169 31.227 39 25.527 39 18.5 38.9551 15.9854 37.9903 13.5744 36.288 11.723Z" id="ic_autorenew_24px" transform="translate(-4 -1)"/></svg>